<?xml version="1.0" encoding="UTF-8"?>
<svg id="Layer_2" data-name="Layer 2" xmlns="http://www.w3.org/2000/svg" viewBox="0 0 287.36 33.18">
  <defs>
    <style>
      .cls-1, .cls-2 {
        stroke-width: 0px;
      }

      .cls-1, .cls-3 {
        fill: #0086ff;
      }

      .cls-2, .cls-4 {
        fill: #fff;
      }

      .cls-4, .cls-3 {
        font-family: FuturaBT-ExtraBlack, 'Futura XBlk BT';
        font-size: 30px;
        font-weight: 800;
      }
    </style>
  </defs>
  <g id="Layer_1-2" data-name="Layer 1">
    <g>
      <g>
        <path class="cls-2" d="M7.39,25.4L1.16,6.47h4.54l5.38,16.77h-2.27L14.45,6.47h4.06l5.41,16.77h-2.19l5.52-16.77h4.19l-6.22,18.93h-4.65l-4.81-14.71h1.24l-4.92,14.71h-4.68Z"/>
        <path class="cls-2" d="M33.87,25.4V6.47h4.41v18.93h-4.41ZM37.92,17.64v-3.71h9.25v3.71h-9.25ZM46.85,25.4V6.47h4.38v18.93h-4.38Z"/>
        <path class="cls-2" d="M88.9,25.72c-1.46,0-2.82-.24-4.07-.72-1.25-.48-2.34-1.16-3.26-2.04-.92-.88-1.64-1.92-2.15-3.11s-.77-2.5-.77-3.92.26-2.73.77-3.92,1.23-2.23,2.16-3.11c.93-.88,2.02-1.56,3.27-2.04,1.25-.48,2.61-.72,4.07-.72,1.64,0,3.13.28,4.46.85,1.33.57,2.45,1.4,3.35,2.5l-2.84,2.6c-.63-.74-1.35-1.3-2.15-1.68-.8-.38-1.67-.57-2.61-.57-.88,0-1.7.15-2.43.45-.74.3-1.38.72-1.92,1.26s-.96,1.18-1.26,1.92c-.3.74-.45,1.56-.45,2.46s.15,1.72.45,2.46c.3.74.72,1.38,1.26,1.92s1.18.96,1.92,1.26c.74.3,1.55.45,2.43.45.94,0,1.81-.19,2.61-.58.8-.39,1.52-.95,2.15-1.69l2.84,2.6c-.9,1.1-2.02,1.94-3.35,2.52-1.33.58-2.83.87-4.49.87Z"/>
        <path class="cls-2" d="M99.42,25.4V6.47h4.41v15.36h9.44v3.57h-13.85Z"/>
        <path class="cls-2" d="M113.38,25.4l8.41-18.93h4.33l8.49,18.93h-4.6l-6.95-16.72h1.76l-6.95,16.72h-4.49ZM117.63,21.34l1.11-3.33h9.79l1.14,3.33h-12.04Z"/>
        <path class="cls-2" d="M136.59,25.4V6.47h4.41v18.93h-4.41Z"/>
        <path class="cls-2" d="M145.46,25.4V6.47h3.62l8.06,13.36h-1.92l7.9-13.36h3.65v18.93h-4.08l-.05-12.63h.81l-6.38,10.6h-1.95l-6.46-10.6h.89v12.63h-4.08Z"/>
        <path class="cls-2" d="M178.95,25.4V6.47h8.6c2.06,0,3.87.39,5.44,1.18s2.8,1.88,3.68,3.3c.88,1.42,1.32,3.08,1.32,4.99s-.44,3.58-1.32,4.99c-.88,1.42-2.11,2.52-3.68,3.3s-3.38,1.18-5.44,1.18h-8.6ZM183.36,21.83h3.98c1.26,0,2.36-.24,3.29-.72.93-.48,1.65-1.16,2.16-2.06.51-.89.77-1.93.77-3.12s-.26-2.25-.77-3.14c-.51-.88-1.24-1.56-2.16-2.04-.93-.48-2.02-.72-3.29-.72h-3.98v11.79Z"/>
        <path class="cls-2" d="M201.29,25.4V6.47h14.31v3.52h-9.95v11.9h10.31v3.52h-14.66ZM205.32,17.5v-3.44h9.12v3.44h-9.12Z"/>
        <path class="cls-2" d="M219.44,25.4V6.47h3.62l11.17,13.63h-1.76V6.47h4.33v18.93h-3.62l-11.17-13.63h1.76v13.63h-4.33Z"/>
        <path class="cls-2" d="M241.29,25.4V6.47h4.41v18.93h-4.41Z"/>
        <path class="cls-2" d="M250.17,25.4V6.47h14.31v3.52h-9.95v11.9h10.31v3.52h-14.66ZM254.2,17.5v-3.44h9.12v3.44h-9.12Z"/>
        <path class="cls-2" d="M268.32,25.4V6.47h8.6c2.06,0,3.87.39,5.44,1.18s2.8,1.88,3.68,3.3c.88,1.42,1.32,3.08,1.32,4.99s-.44,3.58-1.32,4.99c-.88,1.42-2.11,2.52-3.68,3.3s-3.38,1.18-5.44,1.18h-8.6ZM272.72,21.83h3.98c1.26,0,2.36-.24,3.29-.72.93-.48,1.65-1.16,2.16-2.06.51-.89.77-1.93.77-3.12s-.26-2.25-.77-3.14c-.51-.88-1.24-1.56-2.16-2.04-.93-.48-2.02-.72-3.29-.72h-3.98v11.79Z"/>
      </g>
      <g>
        <path class="cls-1" d="M6.22,25.4L0,6.47h4.54l5.38,16.77h-2.27L13.28,6.47h4.06l5.41,16.77h-2.19l5.52-16.77h4.19l-6.22,18.93h-4.65l-4.81-14.71h1.24l-4.92,14.71h-4.68Z"/>
        <path class="cls-1" d="M32.7,25.4V6.47h4.41v18.93h-4.41ZM36.76,17.64v-3.71h9.25v3.71h-9.25ZM45.69,25.4V6.47h4.38v18.93h-4.38Z"/>
        <path class="cls-1" d="M87.74,25.72c-1.46,0-2.82-.24-4.07-.72-1.25-.48-2.34-1.16-3.26-2.04-.92-.88-1.64-1.92-2.15-3.11s-.77-2.5-.77-3.92.26-2.73.77-3.92,1.23-2.23,2.16-3.11c.93-.88,2.02-1.56,3.27-2.04,1.25-.48,2.61-.72,4.07-.72,1.64,0,3.13.28,4.46.85,1.33.57,2.45,1.4,3.35,2.5l-2.84,2.6c-.63-.74-1.35-1.3-2.15-1.68-.8-.38-1.67-.57-2.61-.57-.88,0-1.7.15-2.43.45-.74.3-1.38.72-1.92,1.26s-.96,1.18-1.26,1.92c-.3.74-.45,1.56-.45,2.46s.15,1.72.45,2.46c.3.74.72,1.38,1.26,1.92s1.18.96,1.92,1.26c.74.3,1.55.45,2.43.45.94,0,1.81-.19,2.61-.58.8-.39,1.52-.95,2.15-1.69l2.84,2.6c-.9,1.1-2.02,1.94-3.35,2.52-1.33.58-2.83.87-4.49.87Z"/>
        <path class="cls-1" d="M98.26,25.4V6.47h4.41v15.36h9.44v3.57h-13.85Z"/>
        <path class="cls-1" d="M112.22,25.4l8.41-18.93h4.33l8.49,18.93h-4.6l-6.95-16.72h1.76l-6.95,16.72h-4.49ZM116.46,21.34l1.11-3.33h9.79l1.14,3.33h-12.04Z"/>
        <path class="cls-1" d="M135.42,25.4V6.47h4.41v18.93h-4.41Z"/>
        <path class="cls-1" d="M144.3,25.4V6.47h3.62l8.06,13.36h-1.92l7.9-13.36h3.65v18.93h-4.08l-.05-12.63h.81l-6.38,10.6h-1.95l-6.46-10.6h.89v12.63h-4.08Z"/>
        <path class="cls-1" d="M177.78,25.4V6.47h8.6c2.06,0,3.87.39,5.44,1.18s2.8,1.88,3.68,3.3c.88,1.42,1.32,3.08,1.32,4.99s-.44,3.58-1.32,4.99c-.88,1.42-2.11,2.52-3.68,3.3s-3.38,1.18-5.44,1.18h-8.6ZM182.19,21.83h3.98c1.26,0,2.36-.24,3.29-.72.93-.48,1.65-1.16,2.16-2.06.51-.89.77-1.93.77-3.12s-.26-2.25-.77-3.14c-.51-.88-1.24-1.56-2.16-2.04-.93-.48-2.02-.72-3.29-.72h-3.98v11.79Z"/>
        <path class="cls-1" d="M200.12,25.4V6.47h14.31v3.52h-9.95v11.9h10.31v3.52h-14.66ZM204.15,17.5v-3.44h9.12v3.44h-9.12Z"/>
        <path class="cls-1" d="M218.27,25.4V6.47h3.62l11.17,13.63h-1.76V6.47h4.33v18.93h-3.62l-11.17-13.63h1.76v13.63h-4.33Z"/>
        <path class="cls-1" d="M240.13,25.4V6.47h4.41v18.93h-4.41Z"/>
        <path class="cls-1" d="M249,25.4V6.47h14.31v3.52h-9.95v11.9h10.31v3.52h-14.66ZM253.03,17.5v-3.44h9.12v3.44h-9.12Z"/>
        <path class="cls-1" d="M267.15,25.4V6.47h8.6c2.06,0,3.87.39,5.44,1.18s2.8,1.88,3.68,3.3c.88,1.42,1.32,3.08,1.32,4.99s-.44,3.58-1.32,4.99c-.88,1.42-2.11,2.52-3.68,3.3s-3.38,1.18-5.44,1.18h-8.6ZM271.56,21.83h3.98c1.26,0,2.36-.24,3.29-.72.93-.48,1.65-1.16,2.16-2.06.51-.89.77-1.93.77-3.12s-.26-2.25-.77-3.14c-.51-.88-1.24-1.56-2.16-2.04-.93-.48-2.02-.72-3.29-.72h-3.98v11.79Z"/>
      </g>
      <text class="cls-4" transform="translate(53.97 25.73)"><tspan x="0" y="0">?</tspan></text>
      <text class="cls-3" transform="translate(53.23 26.08)"><tspan x="0" y="0">?</tspan></text>
    </g>
  </g>
</svg>