<?xml version="1.0" encoding="UTF-8"?>
<svg id="Layer_2" data-name="Layer 2" xmlns="http://www.w3.org/2000/svg" viewBox="0 0 277.27 161.75">
  <defs>
    <style>
      .cls-1 {
        fill: #0086ff;
      }

      .cls-1, .cls-2, .cls-3, .cls-4 {
        stroke-width: 0px;
      }

      .cls-2 {
        fill: #fff;
      }

      .cls-3 {
        fill: #002a44;
      }

      .cls-4 {
        fill: #007ddb;
      }
    </style>
  </defs>
  <g id="Layer_1-2" data-name="Layer 1">
    <g>
      <path class="cls-2" d="M277.27,61.98c0-34.23-27.75-61.98-61.98-61.98H0v134.62h204.63v26.43l17.54-17.54,18.24,18.24v-36.91h0c22.85-12.25,36.98-31.68,36.87-62.86Z"/>
      <path class="cls-1" d="M10.37,7.18h206.82c29.71,0,53.83,24.12,53.83,53.83v1.03c0,34.65-28.13,62.79-62.79,62.79H10.37c-2.11,0-3.83-1.72-3.83-3.83V11.01c0-2.11,1.72-3.83,3.83-3.83Z"/>
      <g>
        <path class="cls-2" d="M33.64,51.71l-7.47-22.73h5.46l6.46,20.14h-2.73l6.76-20.14h4.87l6.5,20.14h-2.63l6.63-20.14h5.03l-7.47,22.73h-5.59l-5.78-17.67h1.49l-5.91,17.67h-5.62Z"/>
        <path class="cls-2" d="M65.44,51.71v-22.73h5.29v22.73h-5.29ZM70.31,42.39v-4.45h11.11v4.45h-11.11ZM81.03,51.71v-22.73h5.26v22.73h-5.26Z"/>
        <path class="cls-2" d="M96.97,51.71v-9.29l1.2,3.18-10.04-16.63h5.62l7.66,12.73h-3.22l7.7-12.73h5.13l-9.97,16.63,1.2-3.18v9.29h-5.29Z"/>
        <path class="cls-2" d="M39.13,81.3c-1.75,0-3.38-.29-4.89-.86-1.51-.57-2.81-1.39-3.91-2.45-1.1-1.06-1.96-2.31-2.58-3.73-.62-1.43-.93-3-.93-4.71s.31-3.28.93-4.71,1.48-2.67,2.6-3.73c1.11-1.06,2.42-1.88,3.93-2.45,1.5-.57,3.13-.86,4.89-.86,1.97,0,3.76.34,5.36,1.02,1.6.68,2.94,1.68,4.03,3l-3.41,3.12c-.76-.89-1.62-1.56-2.58-2.01-.96-.45-2.01-.68-3.13-.68-1.06,0-2.04.18-2.92.54-.89.36-1.66.86-2.31,1.51s-1.15,1.42-1.51,2.31c-.36.89-.54,1.87-.54,2.96s.18,2.07.54,2.96c.36.89.86,1.66,1.51,2.31s1.42,1.15,2.31,1.51c.89.36,1.86.54,2.92.54,1.13,0,2.17-.23,3.13-.7.96-.47,1.82-1.14,2.58-2.03l3.41,3.12c-1.08,1.32-2.43,2.33-4.03,3.02-1.6.69-3.4,1.04-5.39,1.04Z"/>
        <path class="cls-2" d="M51.76,80.91v-22.73h5.29v18.45h11.33v4.29h-16.63Z"/>
        <path class="cls-2" d="M68.52,80.91l10.1-22.73h5.2l10.2,22.73h-5.52l-8.35-20.07h2.11l-8.35,20.07h-5.39ZM73.62,76.04l1.33-3.99h11.76l1.36,3.99h-14.45Z"/>
        <path class="cls-2" d="M96.39,80.91v-22.73h5.29v22.73h-5.29Z"/>
        <path class="cls-2" d="M107.04,80.91v-22.73h4.35l9.68,16.04h-2.31l9.48-16.04h4.38v22.73h-4.9l-.06-15.17h.97l-7.67,12.73h-2.34l-7.76-12.73h1.07v15.17h-4.9Z"/>
        <path class="cls-2" d="M30.23,110.11v-22.73h10.33c2.47,0,4.64.47,6.53,1.41s3.36,2.26,4.42,3.96c1.06,1.7,1.59,3.7,1.59,5.99s-.53,4.29-1.59,5.99c-1.06,1.7-2.53,3.02-4.42,3.96s-4.06,1.41-6.53,1.41h-10.33ZM35.53,105.82h4.77c1.51,0,2.83-.29,3.95-.86,1.12-.57,1.98-1.4,2.6-2.47.62-1.07.93-2.32.93-3.75s-.31-2.71-.93-3.77c-.62-1.06-1.48-1.88-2.6-2.45-1.12-.57-2.43-.86-3.95-.86h-4.77v14.16Z"/>
        <path class="cls-2" d="M57.06,110.11v-22.73h17.18v4.22h-11.95v14.29h12.37v4.22h-17.6ZM61.9,100.63v-4.12h10.95v4.12h-10.95Z"/>
        <path class="cls-2" d="M78.85,110.11v-22.73h4.35l13.41,16.37h-2.11v-16.37h5.2v22.73h-4.35l-13.41-16.37h2.11v16.37h-5.2Z"/>
        <path class="cls-2" d="M105.09,110.11v-22.73h5.29v22.73h-5.29Z"/>
        <path class="cls-2" d="M115.74,110.11v-22.73h17.18v4.22h-11.95v14.29h12.37v4.22h-17.6ZM120.58,100.63v-4.12h10.95v4.12h-10.95Z"/>
        <path class="cls-2" d="M137.54,110.11v-22.73h10.33c2.47,0,4.64.47,6.53,1.41s3.36,2.26,4.42,3.96c1.06,1.7,1.59,3.7,1.59,5.99s-.53,4.29-1.59,5.99c-1.06,1.7-2.53,3.02-4.42,3.96s-4.06,1.41-6.53,1.41h-10.33ZM142.83,105.82h4.77c1.51,0,2.83-.29,3.95-.86,1.12-.57,1.98-1.4,2.6-2.47.62-1.07.93-2.32.93-3.75s-.31-2.71-.93-3.77c-.62-1.06-1.48-1.88-2.6-2.45-1.12-.57-2.43-.86-3.95-.86h-4.77v14.16Z"/>
      </g>
      <path class="cls-3" d="M244.86,66.01c0-11.1-9-20.09-20.09-20.09-5.85,0-11.1,2.52-14.77,6.51,3.06-1.88,6.64-2.98,10.48-2.98,11.1,0,20.09,9,20.09,20.09,0,5.25-2.03,10.01-5.32,13.58,5.76-3.53,9.61-9.87,9.61-17.12Z"/>
      <path class="cls-3" d="M201.58,64.34h-25.1c-.18-5.28.51-10.61,2.27-15.66,1.97-5.74,5.29-11.04,9.35-15.71-9.24,8.4-14.99,20.58-15.13,33.21h-.01v1.78h28.54v-1.53h.08v-2.09Z"/>
      <rect class="cls-3" x="207.83" y="89.64" width="4.33" height="35.19"/>
      <path class="cls-4" d="M212.15,128.2v15.15s9.63-9.63,9.63-9.63l9.71,9.71v-17.62c-7.76,1.89-13.44,2.67-19.33,2.4Z"/>
    </g>
  </g>
</svg>